<?xml version="1.0" encoding="UTF-8" standalone="no"?>
<!DOCTYPE svg  PUBLIC '-//W3C//DTD SVG 1.1//EN'  'http://www.w3.org/Graphics/SVG/1.1/DTD/svg11.dtd'>
<svg xmlns="http://www.w3.org/2000/svg" xml:space="preserve" version="1.1" y="0px" x="0px" xmlns:xlink="http://www.w3.org/1999/xlink" viewBox="0 0 1280 800" enable-background="new 0 0 1280 800">
	<rect width="1.28e3" height="800" fill="#FBFBFA"/>
	<path d="m868 0l-327 327c-7.8 7.8-20.5 7.8-28.3 0l-2.3-2.3-58.5-58.5c-1.9-1.9-2.9-4.4-2.9-7.1v-259h-20v259c0 8 3.1 15.6 8.8 21.2l22.5 22.5c2.2 4.6 1.4 10.4-2.4 14.2l-7.1 7.1-58 59c-8.8 8.8-23 8.8-31.8 0l-20.3-20.3c-14.6-14.6-38.4-14.6-53 0l-146 145c-2.4 2.4-5.5 3.7-8.8 3.7s-6.5-1.3-8.8-3.7l-124-125v21.2l114 114c5.4 5.4 12.4 8 19.4 8s14.1-2.7 19.4-8l145-145c8.8-8.8 23-8.8 31.8 0l20.3 20.3c7.1 7.1 16.5 11 26.5 11s19.4-3.9 26.5-11l64.9-64.9c2.4-2.4 5.5-3.7 8.8-3.7 1.9 0 3.7 0.4 5.3 1.2l323 323c5.1 5.1 5.1 13.5 0 18.6l-95.7 95.7c-5.1 5.1-13.5 5.1-18.6 0l-61-63c-6.3-6.3-14.6-9.7-23.4-9.7s-17.2 3.4-23.4 9.7l-0.3 0.3c-5.1 5.1-13.4 5.1-18.5 0l-38.3-38c-12.9-12.8-33.9-12.8-46.8 0.1l-10.8 10.8c-2.5 2.5-5.8 3.8-9.3 3.8h-459v124h1.28e3v-800h-290v289c0 2.7-1.1 5.3-3 7.2l-7.1 6.9c-1.9 1.8-4.4 2.8-7 2.8h-156l-149 149c-3.8 3.8-8.8 5.7-14.1 5.7-3.1 0-6-0.6-8.7-1.9l-79.7-79.7-10-10c-3.8-3.8-5.9-8.8-5.9-14.1s2.1-10.4 5.9-14.1l341-341h-28zm-162 454c0.1-5.2 2.2-10.1 5.8-13.7l114-114h147c2.7 0 5.2 1 7.1 2.9l18.9 18.9 0.1 0.1 21.1 21.1 96.7 96.7 0.1-0.1 80.3 80.3c7.8 7.8 7.8 20.5 0 28.3l-108 108c-7.8 7.8-20.5 7.8-28.3 0l-21.2-21.2c-15.6-15.6-41-15.6-56.6 0l-53.7 53.7c-7.8 7.8-20.5 7.8-28.3 0l-193-193c-2-3.2-3-7-3-10.9l1-57zm-40 26v0.5l-0.4-0.4z" fill="#D9F0F9"/>
<g stroke-miterlimit="10" fill="none">
		<path stroke="#fff" stroke-width="11" d="m322 120v172c0 5.3-2.1 10.4-5.9 14.1l-83.9 83.9"/>
		<path stroke="#D51429" stroke-width="7" d="m322 120v172c0 5.3-2.1 10.4-5.9 14.1l-83.9 83.9"/>
		<g stroke="#fff" stroke-width="11">
			<line y2="399" x1="296" x2="301" y1="404"/>
			<path d="m306 394l18.6-17.3c3.8-3.8 5.9-8.8 5.9-14.1v-233" stroke-dasharray="14.1971,7.0985"/>
			<line y2="120" x1="331" x2="331" y1="127"/>
		</g>
		<g stroke="#3B8CBC" stroke-width="7">
			<line y2="399" x1="296" x2="301" y1="404"/>
			<path d="m306 394l18.6-17.3c3.8-3.8 5.9-8.8 5.9-14.1v-233" stroke-dasharray="14.1971,7.0985"/>
			<line y2="120" x1="331" x2="331" y1="127"/>
		</g>
		<path stroke="#fff" stroke-width="11" d="m244 660l0.2-201c0-5.7 2.3-11.2 6.5-15l49.5-43.8c7.9-7 19.9-6.6 27.4 0.8l30.2 29.6c8 7.9 8 20.8-0.1 28.7l-107 103c-3.9 3.7-6.1 8.9-6.1 14.3l-0.1 20.2"/>
		<path stroke="#3B8CBC" stroke-width="7" d="m244 660l0.2-201c0-5.7 2.3-11.2 6.5-15l49.5-43.8c7.9-7 19.9-6.6 27.4 0.8l30.2 29.6c8 7.9 8 20.8-0.1 28.7l-107 103c-3.9 3.7-6.1 8.9-6.1 14.3l-0.1 20.2"/>
		<path stroke="#fff" stroke-width="11" d="m252 660l0.1-83.2c0-2.7 1-5.2 2.9-7.1l215-209c3.7-3.8 5.9-8.8 5.9-14.1v-86"/>
		<path stroke="#5B8689" stroke-width="7" d="m252 660l0.1-83.2c0-2.7 1-5.2 2.9-7.1l215-209c3.7-3.8 5.9-8.8 5.9-14.1v-86"/>
		<path stroke="#fff" stroke-width="11" d="m390 175v117c0 5.3 2.1 10.4 5.8 14.1l88.3 88.5c3.7 3.8 5.8 8.8 5.8 14.1v196c0 5.3-2.1 10.4-5.9 14.2l-30 29.8c-7.8 7.8-20.4 7.8-28.2 0l-40-39.8c-3.8-3.8-5.9-8.9-5.9-14.2v-124"/>
		<path stroke="#904140" stroke-width="7" d="m390 175v117c0 5.3 2.1 10.4 5.8 14.1l88.3 88.5c3.7 3.8 5.8 8.8 5.8 14.1v196c0 5.3-2.1 10.4-5.9 14.2l-30 29.8c-7.8 7.8-20.4 7.8-28.2 0l-40-39.8c-3.8-3.8-5.9-8.9-5.9-14.2v-124"/>
		<path stroke="#fff" stroke-width="11" d="m398 175v117c0 2.6 2 6.2 3.9 8l86.6 86.4c5.2 5.2 9.5 15.5 9.5 22.9v71.9c0 5.3 2.1 10.5 5.9 14.2l157 156c3.9 3.9 10.3 3.9 14.2-0.1l0.1-0.1c1.8-1.9 2.8-4.4 2.8-7v-207c0-5.3 2.1-10.4 5.9-14.1l27.6-27.6"/>
		<path stroke="#F3B431" stroke-width="7" d="m398 175v117c0 2.6 2 6.2 3.9 8l86.6 86.4c5.2 5.2 9.5 15.5 9.5 22.9v71.9c0 5.3 2.1 10.5 5.9 14.2l157 156c3.9 3.9 10.3 3.9 14.2-0.1l0.1-0.1c1.8-1.9 2.8-4.4 2.8-7v-207c0-5.3 2.1-10.4 5.9-14.1l27.6-27.6"/>
		<path stroke="#fff" stroke-width="11" d="m486 120l-1 216c0 5.3 2.1 10.4 5.8 14.1l32.3 33.5c3.7 3.7 5.8 8.8 5.8 14.1v216c0 5.3 2.1 10.4 5.9 14.1l21 20c7.8 7.8 20.5 7.8 28.3 0l77.2-76.7c7.8-7.8 20.5-7.8 28.3 0l91.6 91.6"/>
		<path stroke="#26751E" stroke-width="7" d="m486 120l-1 216c0 5.3 2.1 10.4 5.8 14.1l32.3 33.5c3.7 3.7 5.8 8.8 5.8 14.1v216c0 5.3 2.1 10.4 5.9 14.1l21 20c7.8 7.8 20.5 7.8 28.3 0l77.2-76.7c7.8-7.8 20.5-7.8 28.3 0l91.6 91.6"/>
		<path stroke="#fff" stroke-width="11" d="m787 568l-60.3-60c-3.8-3.8-5.9-8.9-5.9-14.2v-8.7"/>
		<path stroke="#7C7C7C" stroke-width="7" d="m787 568l-60.3-60c-3.8-3.8-5.9-8.9-5.9-14.2v-8.7"/>
		<path stroke="#fff" stroke-width="11" d="m528 64.1v180c0 5.3 2.1 10.4 5.9 14.2l180 180c3.7 3.7 5.8 8.8 5.8 14.1v129c0 5.3 2.1 10.4 5.9 14.1l61.6 61.5"/>
		<path stroke="#7C7C7C" stroke-width="7" d="m528 64.1v180c0 5.3 2.1 10.4 5.9 14.2l180 180c3.7 3.7 5.8 8.8 5.8 14.1v129c0 5.3 2.1 10.4 5.9 14.1l61.6 61.5"/>
		<path stroke="#fff" stroke-width="11" d="m946 656l-294-295c-3.8-3.8-5.9-8.8-5.9-14.1v-138c0-5.3 2.1-10.4 5.9-14.1l27.3-27.3c3.9-3.9 3.9-10.2 0-14.1l-25.6-25.6c-3.9-3.9-10.2-3.9-14.1 0l-26 26c-3.9 3.9-3.9 10.2 0 14.1l26.7 27.1c3.7 3.7 5.8 8.8 5.8 14.1v12"/>
		<path stroke="#38ABDC" stroke-width="7" d="m946 656l-294-295c-3.8-3.8-5.9-8.8-5.9-14.1v-138c0-5.3 2.1-10.4 5.9-14.1l27.3-27.3c3.9-3.9 3.9-10.2 0-14.1l-25.6-25.6c-3.9-3.9-10.2-3.9-14.1 0l-26 26c-3.9 3.9-3.9 10.2 0 14.1l26.7 27.1c3.7 3.7 5.8 8.8 5.8 14.1v12"/>
		<path stroke="#fff" stroke-width="11" d="m710 397l3.3-3.2c3.9-3.8 6.1-9 6.1-14.4v-178c0-5.3 2.1-10.3 5.8-14.1l56.5-57c3.8-3.8 8.9-5.9 14.2-5.9h27c5.3 0 10.4 2.1 14.2 5.9l112 112"/>
		<path stroke="#F3B431" stroke-width="7" d="m710 397l3.3-3.2c3.9-3.8 6.1-9 6.1-14.4v-178c0-5.3 2.1-10.3 5.8-14.1l56.5-57c3.8-3.8 8.9-5.9 14.2-5.9h27c5.3 0 10.4 2.1 14.2 5.9l112 112"/>
		<line y2="396" x1="788" x2="711" stroke="#fff" y1="318" stroke-width="11"/>
		<line y2="396" x1="788" x2="711" stroke="#F3B431" y1="318" stroke-width="7"/>
		<g stroke="#fff" stroke-width="11">
			<line y2="221" x1="791" x2="786" y1="216"/>
			<path d="m781 226l-55.7 55.6c-3.8 3.8-5.9 8.7-5.9 14v7.2" stroke-dasharray="13.9495,6.9748"/>
			<line y2="313" x1="720" x2="720" y1="306"/>
		</g>
		<g stroke="#F3B431" stroke-width="7">
			<line y2="221" x1="791" x2="786" y1="216"/>
			<path d="m781 226l-55.7 55.6c-3.8 3.8-5.9 8.7-5.9 14v7.2" stroke-dasharray="13.9495,6.9748"/>
			<line y2="313" x1="720" x2="720" y1="306"/>
		</g>
		<path stroke="#fff" stroke-width="11" d="m952 650l-99.7-99.6c-3.8-3.8-5.9-8.8-5.9-14.1v-333c0-5.3 2.1-10.3 5.8-14.1l0.6-0.7c7.9-7.9 20.7-7.9 28.5 0.1l59.8 61.3"/>
		<path stroke="#665294" stroke-width="7" d="m952 650l-99.7-99.6c-3.8-3.8-5.9-8.8-5.9-14.1v-333c0-5.3 2.1-10.3 5.8-14.1l0.6-0.7c7.9-7.9 20.7-7.9 28.5 0.1l59.8 61.3"/>
		<path stroke="#fff" stroke-width="11" d="m958 120l-0.1 402c0 2.7 1.1 5.2 2.9 7.1l121 121"/>
		<path stroke="#0C0B0B" stroke-width="7" d="m958 120l-0.1 402c0 2.7 1.1 5.2 2.9 7.1l121 121"/>
	<line y2="641" x1="1.08e3" x2="1.08e3" stroke="#0C0B0B" y1="647" stroke-width="7"/>
</g>
</svg>
