<?xml version="1.0" encoding="utf-8"?>
<!-- Generator: Adobe Illustrator 17.1.0, SVG Export Plug-In . SVG Version: 6.00 Build 0)  -->
<!DOCTYPE svg PUBLIC "-//W3C//DTD SVG 1.1//EN" "http://www.w3.org/Graphics/SVG/1.1/DTD/svg11.dtd">
<svg version="1.1" xmlns="http://www.w3.org/2000/svg" xmlns:xlink="http://www.w3.org/1999/xlink" x="0px" y="0px"
	 viewBox="0 0 1280 800" enable-background="new 0 0 1280 800" xml:space="preserve">
<g id="Layer_3">
	<rect fill="#FBFBFA" width="1278" height="800"/>
</g>
<g id="Layer_4">
	<path fill="#D9F0F9" d="M867.5,0L541,326.6c-7.8,7.8-20.5,7.8-28.3,0l-2.3-2.3l0,0l-58.5-58.5c-1.9-1.9-2.9-4.4-2.9-7.1V0h-20
		v258.7c0,8,3.1,15.6,8.8,21.2l22.5,22.5c2.2,4.6,1.4,10.4-2.4,14.2l-7.1,7.1h0L393,381.6c-8.8,8.8-23,8.8-31.8,0l-20.3-20.3
		c-14.6-14.6-38.4-14.6-53,0L142.5,506.6c-2.4,2.4-5.5,3.7-8.8,3.7s-6.5-1.3-8.8-3.7L0,381.9v21.2l114.2,114.2
		c5.4,5.4,12.4,8,19.4,8s14.1-2.7,19.4-8l145.4-145.4c8.8-8.8,23-8.8,31.8,0l20.3,20.3c7.1,7.1,16.5,11,26.5,11
		c10,0,19.4-3.9,26.5-11l64.9-64.9c2.4-2.4,5.5-3.7,8.8-3.7c1.9,0,3.7,0.4,5.3,1.2L804.3,647c5.1,5.1,5.1,13.5,0,18.6l-95.7,95.7
		c-5.1,5.1-13.5,5.1-18.6,0L627.7,699c-6.3-6.3-14.6-9.7-23.4-9.7s-17.2,3.4-23.4,9.7l-0.3,0.3c-5.1,5.1-13.4,5.1-18.5,0l-38.3-38
		c-12.9-12.8-33.9-12.8-46.8,0.1l-10.8,10.8c-2.5,2.5-5.8,3.8-9.3,3.8H0v124h1280V0H990v289.1c0,2.7-1.1,5.3-3,7.2l-7.1,6.9
		c-1.9,1.8-4.4,2.8-7,2.8h-20.4H817.4L668.2,455.3c-3.8,3.8-8.8,5.7-14.1,5.7c0,0,0,0,0,0c-3.1,0-6-0.6-8.7-1.9l-79.7-79.7l0,0
		L555.1,369c-3.8-3.8-5.9-8.8-5.9-14.1s2.1-10.4,5.9-14.1L895.8,0L867.5,0z M705.9,453.9c0.1-5.2,2.2-10.1,5.8-13.7l114-114.2h126.8
		h20.2c2.7,0,5.2,1,7.1,2.9l18.9,18.9c0,0,0,0,0.1,0.1l21.1,21.1l96.7,96.7l0.1-0.1l80.3,80.3c7.8,7.8,7.8,20.5,0,28.3l-108.2,108.2
		c-7.8,7.8-20.5,7.8-28.3,0l-21.2-21.2c-15.6-15.6-41-15.6-56.6,0l-53.7,53.7c-7.8,7.8-20.5,7.8-28.3,0L707.7,521.7
		c-2-3.2-3-7-3-10.9L705.9,453.9z M666,479.5v0.5l-0.4-0.4C665.7,479.6,665.9,479.5,666,479.5z"/>
</g>
<g id="Layer_2">
	<g>
		<path fill="none" stroke="#FFFFFF" stroke-width="11" stroke-miterlimit="10" d="M321.5,120v171.7c0,5.3-2.1,10.4-5.9,14.1
			l-83.9,83.9"/>
		<path fill="none" stroke="#D51429" stroke-width="7" stroke-miterlimit="10" d="M321.5,120v171.7c0,5.3-2.1,10.4-5.9,14.1
			l-83.9,83.9"/>
	</g>
	<g>
		<g>
			<line fill="none" stroke="#FFFFFF" stroke-width="11" stroke-miterlimit="10" x1="296.2" y1="403.7" x2="301.3" y2="399"/>
			<path fill="none" stroke="#FFFFFF" stroke-width="11" stroke-miterlimit="10" stroke-dasharray="14.1971,7.0985" d="M306.5,394.1
				l18.6-17.3c3.8-3.8,5.9-8.8,5.9-14.1V130.5"/>
			<line fill="none" stroke="#FFFFFF" stroke-width="11" stroke-miterlimit="10" x1="331" y1="127" x2="331" y2="120"/>
		</g>
		<g>
			<line fill="none" stroke="#3B8CBC" stroke-width="7" stroke-miterlimit="10" x1="296.2" y1="403.7" x2="301.3" y2="399"/>
			<path fill="none" stroke="#3B8CBC" stroke-width="7" stroke-miterlimit="10" stroke-dasharray="14.1971,7.0985" d="M306.5,394.1
				l18.6-17.3c3.8-3.8,5.9-8.8,5.9-14.1V130.5"/>
			<line fill="none" stroke="#3B8CBC" stroke-width="7" stroke-miterlimit="10" x1="331" y1="127" x2="331" y2="120"/>
		</g>
	</g>
	<g>
		<path fill="none" stroke="#FFFFFF" stroke-width="11" stroke-miterlimit="10" d="M243.5,660l0.2-201c0-5.7,2.3-11.2,6.5-15
			l49.5-43.8c7.9-7,19.9-6.6,27.4,0.8l30.2,29.6c8,7.9,8,20.8-0.1,28.7L249.8,563.1c-3.9,3.7-6.1,8.9-6.1,14.3l-0.1,20.2"/>
		<path fill="none" stroke="#3B8CBC" stroke-width="7" stroke-miterlimit="10" d="M243.5,660l0.2-201c0-5.7,2.3-11.2,6.5-15
			l49.5-43.8c7.9-7,19.9-6.6,27.4,0.8l30.2,29.6c8,7.9,8,20.8-0.1,28.7L249.8,563.1c-3.9,3.7-6.1,8.9-6.1,14.3l-0.1,20.2"/>
	</g>
	<g>
		<path fill="none" stroke="#FFFFFF" stroke-width="11" stroke-miterlimit="10" d="M252.5,660.2l0.1-83.2c0-2.7,1-5.2,2.9-7.1
			l215.1-209.1c3.7-3.8,5.9-8.8,5.9-14.1V261"/>
		<path fill="none" stroke="#5B8689" stroke-width="7" stroke-miterlimit="10" d="M252.5,660.2l0.1-83.2c0-2.7,1-5.2,2.9-7.1
			l215.1-209.1c3.7-3.8,5.9-8.8,5.9-14.1V261"/>
	</g>
	<g>
		<path fill="none" stroke="#FFFFFF" stroke-width="11" stroke-miterlimit="10" d="M389.5,175v116.7c0,5.3,2.1,10.4,5.8,14.1
			l88.3,88.5c3.7,3.8,5.8,8.8,5.8,14.1v196.2c0,5.3-2.1,10.4-5.9,14.2l-30,29.8c-7.8,7.8-20.4,7.8-28.2,0l-40-39.8
			c-3.8-3.8-5.9-8.9-5.9-14.2V470"/>
		<path fill="none" stroke="#904140" stroke-width="7" stroke-miterlimit="10" d="M389.5,175v116.7c0,5.3,2.1,10.4,5.8,14.1
			l88.3,88.5c3.7,3.8,5.8,8.8,5.8,14.1v196.2c0,5.3-2.1,10.4-5.9,14.2l-30,29.8c-7.8,7.8-20.4,7.8-28.2,0l-40-39.8
			c-3.8-3.8-5.9-8.9-5.9-14.2V470"/>
	</g>
	<g>
		<path fill="none" stroke="#FFFFFF" stroke-width="11" stroke-miterlimit="10" d="M398.5,175v117.4c0,2.6,2,6.2,3.9,8l86.6,86.4
			c5.2,5.2,9.5,15.5,9.5,22.9v71.9c0,5.3,2.1,10.5,5.9,14.2l157.2,155.6c3.9,3.9,10.3,3.9,14.2-0.1l0.1-0.1c1.8-1.9,2.8-4.4,2.8-7
			V436.6c0-5.3,2.1-10.4,5.9-14.1l27.6-27.6"/>
		<path fill="none" stroke="#F3B431" stroke-width="7" stroke-miterlimit="10" d="M398.5,175v117.4c0,2.6,2,6.2,3.9,8l86.6,86.4
			c5.2,5.2,9.5,15.5,9.5,22.9v71.9c0,5.3,2.1,10.5,5.9,14.2l157.2,155.6c3.9,3.9,10.3,3.9,14.2-0.1l0.1-0.1c1.8-1.9,2.8-4.4,2.8-7
			V436.6c0-5.3,2.1-10.4,5.9-14.1l27.6-27.6"/>
	</g>
	<g>
		<path fill="none" stroke="#FFFFFF" stroke-width="11" stroke-miterlimit="10" d="M486.5,120l-1,215.7c0,5.3,2.1,10.4,5.8,14.1
			l32.3,33.5c3.7,3.7,5.8,8.8,5.8,14.1v215.8c0,5.3,2.1,10.4,5.9,14.1L556,648c7.8,7.8,20.5,7.8,28.3,0l77.2-76.7
			c7.8-7.8,20.5-7.8,28.3,0l91.6,91.6"/>
		<path fill="none" stroke="#26751E" stroke-width="7" stroke-miterlimit="10" d="M486.5,120l-1,215.7c0,5.3,2.1,10.4,5.8,14.1
			l32.3,33.5c3.7,3.7,5.8,8.8,5.8,14.1v215.8c0,5.3,2.1,10.4,5.9,14.1L556,648c7.8,7.8,20.5,7.8,28.3,0l77.2-76.7
			c7.8-7.8,20.5-7.8,28.3,0l91.6,91.6"/>
	</g>
	<g>
		<path fill="none" stroke="#FFFFFF" stroke-width="11" stroke-miterlimit="10" d="M786.6,568.5l-60.3-60c-3.8-3.8-5.9-8.9-5.9-14.2
			v-8.7"/>
		<path fill="none" stroke="#7C7C7C" stroke-width="7" stroke-miterlimit="10" d="M786.6,568.5l-60.3-60c-3.8-3.8-5.9-8.9-5.9-14.2
			v-8.7"/>
	</g>
	<g>
		<path fill="none" stroke="#FFFFFF" stroke-width="11" stroke-miterlimit="10" d="M528.5,64.1v179.6c0,5.3,2.1,10.4,5.9,14.2
			l180,180.3c3.7,3.7,5.8,8.8,5.8,14.1v128.7c0,5.3,2.1,10.4,5.9,14.1l61.6,61.5"/>
		<path fill="none" stroke="#7C7C7C" stroke-width="7" stroke-miterlimit="10" d="M528.5,64.1v179.6c0,5.3,2.1,10.4,5.9,14.2
			l180,180.3c3.7,3.7,5.8,8.8,5.8,14.1v128.7c0,5.3,2.1,10.4,5.9,14.1l61.6,61.5"/>
	</g>
	<g>
		<path fill="none" stroke="#FFFFFF" stroke-width="11" stroke-miterlimit="10" d="M945.8,655.5L651.6,361.4
			c-3.8-3.8-5.9-8.8-5.9-14.1V209.3c0-5.3,2.1-10.4,5.9-14.1l27.3-27.3c3.9-3.9,3.9-10.2,0-14.1l-25.6-25.6
			c-3.9-3.9-10.2-3.9-14.1,0L613.3,154c-3.9,3.9-3.9,10.2,0,14.1l26.7,27.1c3.7,3.7,5.8,8.8,5.8,14.1V221"/>
		<path fill="none" stroke="#38ABDC" stroke-width="7" stroke-miterlimit="10" d="M945.8,655.5L651.6,361.4
			c-3.8-3.8-5.9-8.8-5.9-14.1V209.3c0-5.3,2.1-10.4,5.9-14.1l27.3-27.3c3.9-3.9,3.9-10.2,0-14.1l-25.6-25.6
			c-3.9-3.9-10.2-3.9-14.1,0L613.3,154c-3.9,3.9-3.9,10.2,0,14.1l26.7,27.1c3.7,3.7,5.8,8.8,5.8,14.1V221"/>
	</g>
	<g>
		<path fill="none" stroke="#FFFFFF" stroke-width="11" stroke-miterlimit="10" d="M710.1,397.3l3.3-3.2c3.9-3.8,6.1-9,6.1-14.4
			V202.2c0-5.3,2.1-10.3,5.8-14.1l56.5-57c3.8-3.8,8.9-5.9,14.2-5.9h27c5.3,0,10.4,2.1,14.2,5.9l111.6,112.1"/>
		<path fill="none" stroke="#F3B431" stroke-width="7" stroke-miterlimit="10" d="M710.1,397.3l3.3-3.2c3.9-3.8,6.1-9,6.1-14.4
			V202.2c0-5.3,2.1-10.3,5.8-14.1l56.5-57c3.8-3.8,8.9-5.9,14.2-5.9h27c5.3,0,10.4,2.1,14.2,5.9l111.6,112.1"/>
	</g>
	<g>
		<line fill="none" stroke="#FFFFFF" stroke-width="11" stroke-miterlimit="10" x1="788.2" y1="318" x2="711.1" y2="396"/>
		<line fill="none" stroke="#F3B431" stroke-width="7" stroke-miterlimit="10" x1="788.2" y1="318" x2="711.1" y2="396"/>
	</g>
	<g>
		<g>
			<line fill="none" stroke="#FFFFFF" stroke-width="11" stroke-miterlimit="10" x1="791.1" y1="216.1" x2="786.1" y2="221"/>
			<path fill="none" stroke="#FFFFFF" stroke-width="11" stroke-miterlimit="10" stroke-dasharray="13.9495,6.9748" d="M781.1,226.2
				l-55.7,55.6c-3.8,3.8-5.9,8.7-5.9,14v7.2"/>
			<line fill="none" stroke="#FFFFFF" stroke-width="11" stroke-miterlimit="10" x1="719.5" y1="306" x2="719.5" y2="313"/>
		</g>
		<g>
			<line fill="none" stroke="#F3B431" stroke-width="7" stroke-miterlimit="10" x1="791.1" y1="216.1" x2="786.1" y2="221"/>
			<path fill="none" stroke="#F3B431" stroke-width="7" stroke-miterlimit="10" stroke-dasharray="13.9495,6.9748" d="M781.1,226.2
				l-55.7,55.6c-3.8,3.8-5.9,8.7-5.9,14v7.2"/>
			<line fill="none" stroke="#F3B431" stroke-width="7" stroke-miterlimit="10" x1="719.5" y1="306" x2="719.5" y2="313"/>
		</g>
	</g>
	<g>
		<path fill="none" stroke="#FFFFFF" stroke-width="11" stroke-miterlimit="10" d="M952.5,649.5l-99.7-99.6
			c-3.8-3.8-5.9-8.8-5.9-14.1V203.4c0-5.3,2.1-10.3,5.8-14.1l0.6-0.7c7.9-7.9,20.7-7.9,28.5,0.1l59.8,61.3"/>
		<path fill="none" stroke="#665294" stroke-width="7" stroke-miterlimit="10" d="M952.5,649.5l-99.7-99.6
			c-3.8-3.8-5.9-8.8-5.9-14.1V203.4c0-5.3,2.1-10.3,5.8-14.1l0.6-0.7c7.9-7.9,20.7-7.9,28.5,0.1l59.8,61.3"/>
	</g>
	<g>
		<path fill="none" stroke="#FFFFFF" stroke-width="11" stroke-miterlimit="10" d="M958.3,120l-0.1,401.5c0,2.7,1.1,5.2,2.9,7.1
			l120.6,120.6"/>
		<path fill="none" stroke="#0C0B0B" stroke-width="7" stroke-miterlimit="10" d="M958.3,120l-0.1,401.5c0,2.7,1.1,5.2,2.9,7.1
			l120.6,120.6"/>
	</g>
	<line fill="none" stroke="#0C0B0B" stroke-width="7" stroke-miterlimit="10" x1="1078.5" y1="647" x2="1084.8" y2="640.8"/>
</g>
</svg>
